<?xml version="1.0" standalone="no"?>
<!DOCTYPE svg PUBLIC "-//W3C//DTD SVG 20010904//EN"
 "http://www.w3.org/TR/2001/REC-SVG-20010904/DTD/svg10.dtd">
<svg version="1.0" xmlns="http://www.w3.org/2000/svg"
 width="2000.000000pt" height="1500.000000pt" viewBox="0 0 2000.000000 1500.000000"
 preserveAspectRatio="xMidYMid meet">

<g transform="translate(0.000000,1500.000000) scale(0.100000,-0.100000)"
fill="#000000" stroke="none">
<path d="M9760 12490 c-1605 -75 -3072 -916 -3953 -2267 -432 -661 -694 -1407
-784 -2223 -25 -233 -25 -767 0 -1000 128 -1165 618 -2204 1424 -3016 1079
-1086 2581 -1617 4100 -1449 1476 163 2798 973 3618 2215 446 677 711 1420
802 2250 25 233 25 767 0 1000 -67 611 -219 1144 -476 1675 -117 240 -190 369
-326 575 -844 1276 -2208 2092 -3720 2224 -222 19 -479 25 -685 16z m-2420
-4990 l0 -1890 -225 0 -225 0 0 1890 0 1890 225 0 225 0 0 -1890z m2068 1858
c-772 -1024 -1409 -1871 -1411 -1877 -1 -4 311 -392 693 -862 382 -469 723
-889 758 -931 l63 -78 -294 0 -294 0 -744 932 c-409 513 -743 935 -742 939 1
3 325 435 719 958 l717 951 280 0 279 0 -24 -32z m3042 -1845 c354 -1033 645
-1884 648 -1890 3 -10 -49 -13 -240 -13 l-243 0 -165 495 -165 495 -800 0
-800 0 -166 -493 -167 -492 -241 -3 c-157 -1 -241 1 -241 8 0 7 1211 3487
1302 3743 l10 27 312 0 313 0 643 -1877z"/>
<path d="M11475 8963 c-27 -96 -225 -690 -446 -1345 -115 -339 -209 -619 -209
-622 0 -3 299 -6 665 -6 366 0 665 2 665 6 0 7 -652 2018 -655 2022 -2 2 -11
-23 -20 -55z"/>
</g>
</svg>
