<svg xmlns="http://www.w3.org/2000/svg" version="1.1" xmlns:xlink="http://www.w3.org/1999/xlink" xmlns:svgjs="http://svgjs.dev/svgjs" width="1000" height="623" viewBox="0 0 1000 623"><g transform="matrix(1,0,0,1,-0.6060606060606233,0.2522267206477409)"><svg viewBox="0 0 396 247" data-background-color="#ffffff" preserveAspectRatio="xMidYMid meet" height="623" width="1000" xmlns="http://www.w3.org/2000/svg" xmlns:xlink="http://www.w3.org/1999/xlink"><g id="tight-bounds" transform="matrix(1,0,0,1,0.2400000000000091,-0.09999999999999432)"><svg viewBox="0 0 395.52 247.2" height="247.2" width="395.52"><g><svg></svg></g><g><svg viewBox="0 0 395.52 247.2" height="247.2" width="395.52"><g><path xmlns="http://www.w3.org/2000/svg" d="M55.039 247.2l26.403-45.732 232.636 0 26.403 45.732zM197.76 0l26.403 45.732-52.806 0z" fill="#8abe53" fill-rule="nonzero" stroke="none" stroke-width="1" stroke-linecap="butt" stroke-linejoin="miter" stroke-miterlimit="10" stroke-dasharray="" stroke-dashoffset="0" font-family="none" font-weight="none" font-size="none" text-anchor="none" style="mix-blend-mode: normal" data-fill-palette-color="tertiary"></path></g><g transform="matrix(1,0,0,1,82.69161038961037,67.97999999999999)"><svg viewBox="0 0 230.13677922077923 111.24" height="111.24" width="230.13677922077923"><g><svg viewBox="0 0 230.13677922077923 111.24" height="111.24" width="230.13677922077923"><g><svg viewBox="0 0 230.13677922077923 111.24" height="111.24" width="230.13677922077923"><g id="textblocktransform"><svg viewBox="0 0 230.13677922077923 111.24" height="111.24" width="230.13677922077923" id="textblock"><g><svg viewBox="0 0 230.13677922077923 111.24" height="111.24" width="230.13677922077923"><g transform="matrix(1,0,0,1,0,0)"><svg width="230.13677922077923" viewBox="-0.30000001192092896 -38.5 79.6500015258789 38.5" height="111.24" data-palette-color="#8abe53"><path d="M26.45-8.55L24.4-13.95 11.05-13.95Q10.2-11.9 9.6-10.33 9-8.75 8.63-7.6 8.25-6.45 8.1-5.65 7.95-4.85 7.95-4.35L7.95-4.35Q7.95-2.95 8.85-2.43 9.75-1.9 11.85-1.9L11.85-1.9 11.85 0-0.3 0-0.3-1.9Q0.85-2.05 1.68-2.3 2.5-2.55 3.13-3 3.75-3.45 4.23-4.17 4.7-4.9 5.15-5.95L5.15-5.95 18.15-38.5 20.3-38.5 31.65-10.3Q32.8-7.5 33.65-5.83 34.5-4.15 35.3-3.3 36.1-2.45 37.02-2.2 37.95-1.95 39.25-1.95L39.25-1.95 39.25 0 22.95 0 22.95-1.95Q25.6-1.95 26.6-2.45 27.6-2.95 27.6-4.1L27.6-4.1Q27.6-4.6 27.55-5.03 27.5-5.45 27.38-5.95 27.25-6.45 27.03-7.08 26.8-7.7 26.45-8.55L26.45-8.55ZM17.9-31.2L12.05-16.45 23.45-16.45 17.9-31.2ZM71.5-28.85L71.5-28.85Q71.5-24.85 69.1-22.2 66.7-19.55 61.45-18.65L61.45-18.65 72.5-5.35Q73.85-3.7 75.47-2.98 77.1-2.25 79.35-1.9L79.35-1.9 79.35 0 69.7 0 57.45-15.7Q56.8-16.55 56.22-17.05 55.65-17.55 55.02-17.82 54.4-18.1 53.57-18.18 52.75-18.25 51.6-18.25L51.6-18.25 51.6-7.85Q51.6-6 51.82-4.83 52.05-3.65 52.77-3 53.5-2.35 54.87-2.13 56.25-1.9 58.5-1.9L58.5-1.9 58.5 0 40.85 0 40.85-1.9Q42.6-1.95 43.67-2.2 44.75-2.45 45.35-3.05 45.95-3.65 46.15-4.75 46.35-5.85 46.35-7.6L46.35-7.6 46.35-30.9Q46.35-32.65 46.17-33.73 46-34.8 45.47-35.43 44.95-36.05 43.95-36.27 42.95-36.5 41.35-36.6L41.35-36.6 41.35-38.5 57.05-38.5Q63.95-38.5 67.72-35.95 71.5-33.4 71.5-28.85ZM51.6-35.3L51.6-20.75 55.15-20.75Q60.15-20.75 62.57-22.58 65-24.4 65-28.6L65-28.6Q65-32.65 63.07-34.4 61.15-36.15 57.05-36.15L57.05-36.15 52.45-36.15Q51.6-36.15 51.6-35.3L51.6-35.3Z" opacity="1" transform="matrix(1,0,0,1,0,0)" fill="#8abe53" class="undefined-text-0" data-fill-palette-color="primary" id="text-0"></path></svg></g></svg></g></svg></g></svg></g></svg></g></svg></g></svg></g><defs></defs></svg><rect width="395.52" height="247.2" fill="none" stroke="none" visibility="hidden"></rect></g></svg></g></svg>